<?xml version="1.0" encoding="utf-8"?>
<!-- Generator: Adobe Illustrator 28.0.0, SVG Export Plug-In . SVG Version: 6.00 Build 0)  -->
<svg version="1.1" id="Ebene_1" xmlns="http://www.w3.org/2000/svg" xmlns:xlink="http://www.w3.org/1999/xlink" x="0px" y="0px"
	 viewBox="0 0 100 125" style="enable-background:new 0 0 100 125;" xml:space="preserve">
<path d="M59.2,10c-8.2,0-16,3.2-21.8,9c-3.2,3.2-5.6,7-7.2,11.2c-4.2,1.5-8,3.9-11.2,7.2c-5.8,5.8-9,13.6-9,21.8s3.2,16,9,21.8
	c5.8,5.8,13.6,9,21.8,9s16-3.2,21.8-9c3.2-3.2,5.6-7,7.2-11.2c4.2-1.5,8-3.9,11.2-7.1c5.8-5.8,9-13.6,9-21.8s-3.2-16-9-21.8
	C75.2,13.2,67.4,10,59.2,10z M37.4,62.6c5.8,5.8,13.7,9,21.8,9c0,0,0,0,0,0c-4,5.9-10.7,9.8-18.4,9.8c-12.3,0-22.2-10-22.2-22.2
	c0-7.4,3.7-14.3,9.8-18.4c0,0,0,0,0,0C28.4,49.1,31.6,56.8,37.4,62.6z M61.2,79.6C55.8,85,48.5,88,40.8,88s-14.9-3-20.4-8.4
	S12,66.9,12,59.2s3-14.9,8.4-20.4c2.6-2.6,5.6-4.7,9-6.1c-0.5,1.8-0.8,3.7-1,5.7c-7.3,4.4-11.9,12.3-11.9,20.8
	c0,13.4,10.9,24.2,24.2,24.2S65,72.5,65,59.2S54.2,35,40.8,35c-1.1,0-2.1,0.1-3.1,0.2c0.4-1.7,1.1-3.3,1.9-4.8
	c8-0.3,15.9,2.7,21.6,8.4c5.4,5.4,8.4,12.7,8.4,20.4S66.6,74.1,61.2,79.6z M37.2,37.3c1.2-0.2,2.4-0.3,3.6-0.3
	C53.1,37,63,46.9,63,59.2c0,1.2-0.1,2.4-0.3,3.6c-1.2,0.2-2.4,0.3-3.6,0.3C46.9,63,37,53.1,37,40.8C37,39.6,37.1,38.4,37.2,37.3z
	 M62.6,37.4c-5.8-5.8-13.7-9-21.8-9c4-5.9,10.7-9.8,18.4-9.8c12.3,0,22.2,10,22.2,22.2c0,7.4-3.7,14.3-9.8,18.4c0,0,0,0,0,0
	C71.6,50.9,68.4,43.2,62.6,37.4z M79.6,61.2c-2.6,2.6-5.6,4.7-9,6.1c0.5-1.8,0.8-3.7,1-5.7c7.3-4.4,11.9-12.3,11.9-20.8
	c0-13.4-10.9-24.2-24.2-24.2S35,27.5,35,40.8S45.8,65,59.2,65c1.1,0,2.1-0.1,3.1-0.2c-0.4,1.7-1.1,3.3-1.9,4.8
	c-8.1,0.3-15.9-2.7-21.6-8.4c-5.4-5.4-8.4-12.7-8.4-20.4s3-14.9,8.4-20.4S51.5,12,59.2,12s14.9,3,20.4,8.4S88,33.1,88,40.8
	S85,55.8,79.6,61.2z"/>
</svg>
