<?xml version="1.0" encoding="utf-8"?>
<!-- Generator: Adobe Illustrator 28.0.0, SVG Export Plug-In . SVG Version: 6.00 Build 0)  -->
<svg version="1.1" id="Ebene_1" xmlns="http://www.w3.org/2000/svg" xmlns:xlink="http://www.w3.org/1999/xlink" x="0px" y="0px"
	 viewBox="0 0 984 921.4" style="enable-background:new 0 0 984 921.4;" xml:space="preserve">
<style type="text/css">
	.st0{fill:#DCE2FF;}
	.st1{fill:none;stroke:#7C8193;stroke-miterlimit:10;}
</style>
<circle class="st0" cx="399.5" cy="382.5" r="314"/>
<circle class="st1" cx="449.5" cy="419" r="314"/>
<g>
	<path d="M819.4,601l-13.5-6.9l-0.3-225.5c-0.1-17.7-14.4-32-32.1-32h-72v-8.3c11.5-2,20-12,20-23.7v-20.2c13.7-1.7,24-13.4,24-27.2
		v-16.6c0-2.2-1.8-4-4-4c-0.7,0-1.4,0.2-2.1,0.6l-13.9,8.4v-4.9c0-2.2-1.8-4-4-4c-0.6,0-1.2,0.1-1.8,0.4l-14.7,7.3l-11.6-2.9
		c-15.5-3.9-31.2,5.6-35.1,21.1c-0.6,2.3-0.9,4.6-0.9,7c0,0,0,27.8,0.1,28.1c0.4,6.9,5.2,12.7,11.9,14.5v24.5h-80.4
		c-15.7,0-29.3,10.9-32.7,26.2l-24.9,111.8c-3.8,17.1-0.4,35.1,9.4,49.6l8.3,12.4h-7.8c-5.2,0-10.3-1.1-15-3.3
		c-0.9-5.4-1.9-10.8-3.2-16.2c-4-16.8-9.8-33.1-17.4-48.6l18.2-42.4c5-11.6,6.6-24.4,4.6-36.9c-0.3-2.2-2.4-3.7-4.6-3.3
		c0,0,0,0-0.1,0c-4.1,0.7-8.2,1.7-12.1,3.1c-7.3,2.4-15,3.7-22.7,3.7H373.5c-2.2,0-4,1.8-4,4v104c0,0.7,0.2,1.5,0.6,2.1l56,89.6
		c0.8,1.3,2.3,2,3.8,1.9l13.7-1.4c0.9,2.1,0,4.5-2,5.6l-5,2.7c-1.9,1-2.7,3.5-1.6,5.4c0,0.1,0.1,0.2,0.1,0.2l10.6,16.9
		c1.2,1.9,0.6,4.3-1.3,5.5c0,0-0.1,0.1-0.1,0.1l-41.7,23.9c-1.9,1.1-4.4,0.4-5.5-1.5c0,0,0,0,0,0l-68.5-123.3
		c-4.6-8.3-7-17.7-7-27.2V384.6c0-13.2,10.8-24,24-24h84c2.2,0,4-1.8,4-4v-28.1c0-2.2-1.8-4-4-4c-4.4,0-7.9-3.6-7.9-8
		c0-4.4,3.6-7.9,8-7.9l0,0c2.4,0,4.7,1.1,6.2,3c1.4,1.7,3.9,2,5.6,0.7c0.1-0.1,0.3-0.2,0.4-0.4c1.9-2,3.5-4.3,4.7-6.8
		c1-2,1.8-4.2,2.3-6.4l3.7,1.9c4.1,2,8.4,3.3,12.9,3.8v16.1c0,7.6-5.4,14.1-12.8,15.7c-2.1,0.4-4.3,0.4-6.4,0
		c-2.2-0.4-4.3,1-4.7,3.2c-0.4,2.1,1,4.2,3.1,4.7c1.6,0.3,3.2,0.5,4.8,0.5v12.1c0,2.2,1.8,4,4,4h66c8.4,0,16.2,4,21.1,10.8
		c1.3,1.8,3.8,2.2,5.6,0.9c1.8-1.3,2.2-3.8,0.9-5.5c-6.4-8.9-16.7-14.1-27.6-14.1h-11.4c-0.8-2.9-1.2-5.9-1.2-9
		c0-8.9-2.9-17.6-8.2-24.8l-1.3-1.8c-4.3-5.8-6.6-12.8-6.6-20.1c0-17.4-10.6-33.1-26.8-39.6c-10.7-4.3-22.5-4.7-33.4-1.1l-3.2,1
		c-15.8,5.1-26.5,19.9-26.4,36.5c0,8.1-4.5,15.5-11.8,19.1c-15.7,7.9-27,22.5-30.6,39.8h-13c-17.7,0-32,14.3-32,32V501
		c0,10.9,2.8,21.6,8.1,31.1l16.1,29c-0.1,2.9-0.2,5.9-0.2,9.1v122.3c0,2.2,1.8,4,4,4s4-1.8,4-4V575.2l44.6,80.2
		c3.2,5.8,10.5,7.9,16.3,4.7c0,0,0.1,0,0.1-0.1l41.7-23.9c5.8-3.3,7.8-10.6,4.5-16.4c-0.1-0.1-0.2-0.3-0.2-0.4l-8.3-13.3l1.2-0.7
		c6-3.2,8.3-10.7,5.1-16.8c-0.6-1.1-1.3-2.1-2.2-2.9c-0.8-0.9-2-1.3-3.2-1.2l-13.5,1.4l-45.9-73.4H514c0.6,2.1,1.1,4.2,1.6,6.4
		c4,16.8,6,34,6,51.3v122.3c0,2.2,1.8,4,4,4s4-1.8,4-4V570.2c0-9.3-0.6-18.6-1.7-27.9c4.4,1.5,9,2.2,13.7,2.2h13.2l30.8,45.7v102.3
		c0,2.2,1.8,4,4,4s4-1.8,4-4v-90.4l20.3,30.1c3.7,5.4,11.1,6.9,16.6,3.3l40.1-26.6c0.2-0.1,0.4-0.3,0.5-0.4h98.5v84c0,2.2,1.8,4,4,4
		s4-1.8,4-4v-52H794c6.6,0,12-5.4,12-12l0-10.3c7.6,1,14.5-4.3,15.5-11.9c0.1-0.6,0.1-1.2,0.1-1.8
		C821.5,603.1,820.7,601.7,819.4,601z M369.1,345.3c4.5-11,12.9-20,23.6-25.3c10-4.9,16.3-15.1,16.2-26.3c0-13.1,8.4-24.8,20.9-28.9
		l3.2-1c9.1-3,19-2.6,27.9,0.9c13.1,5.3,21.8,18,21.8,32.2c0,8.9,2.9,17.6,8.2,24.8l1.3,1.8c4.3,5.8,6.6,12.8,6.6,20c0,3,0.3,6,1,9
		h-42.3v-9.5c9.6-3.4,16-12.5,16-22.6v-19.9c0-2.2-1.8-4-4-4c-4.6,0-9.2-1.1-13.4-3.2l-8.8-4.4c-2-1-4.4-0.2-5.4,1.8
		c-0.3,0.6-0.4,1.2-0.4,1.8c0,3.1-0.7,6.2-2.1,8.9c-0.3,0.6-0.6,1.2-1,1.7c-7.3-4.9-17.2-2.9-22.1,4.4c-4.9,7.3-2.9,17.2,4.4,22.1
		c1.5,1,3.1,1.7,4.8,2.2v20.6h-58.8C367.3,350.1,368.1,347.6,369.1,345.3z M489.2,400.6c8.6,0,17.1-1.4,25.2-4.1
		c2.2-0.7,4.5-1.4,6.8-1.9c0.1,1.7,0.2,3.4,0.2,5.1c0,8-1.6,15.9-4.8,23.2L497.9,467c-0.5,1.1-0.4,2.3,0.1,3.4
		c1.7,3.4,3.3,6.8,4.8,10.2H377.5v-80H489.2z M380.8,504.6l-3.2-5.1v-10.9h128.5c2.1,5.3,3.9,10.6,5.6,16H380.8z M685.5,369.2
		c0-0.2,0-0.4,0-0.6c0-0.6-0.1-1.2-0.4-1.8l-2.7-5.4l3.1-3.1l3.1,3.1l-2.7,5.4c-0.3,0.6-0.4,1.2-0.4,1.8
		C685.5,368.8,685.6,369,685.5,369.2l5.9,37l-5.9,17.7l-5.9-17.7L685.5,369.2z M696.9,389.7l-3.2-20.5l3.1-6.3l7.5-7.6
		c1.6-1.5,1.6-4.1,0.1-5.7c-1.5-1.6-4.1-1.6-5.7-0.1c0,0-0.1,0.1-0.1,0.1l-5.2,5.2l-4.1-4.1l9.3-6.2H712L696.9,389.7z M665.5,269.5
		c0-11.6,9.4-20.9,21-20.9c1.7,0,3.4,0.2,5,0.6l13,3.3c0.9,0.2,1.9,0.1,2.8-0.3l10.2-5.1v5.5c0,2.2,1.8,4,4,4c0.7,0,1.4-0.2,2.1-0.6
		l13.9-8.4v9.5c0,10.7-8.7,19.4-19.4,19.4c-2.5,0-5-0.5-7.3-1.4l-15.8-6.4c-2-0.8-4.4,0.1-5.2,2.2c0,0.1-0.1,0.2-0.1,0.3l-0.4,1.4
		c-1.4,4.1-3.6,7.9-6.6,11c-5.1-3.5-11.8-3.8-17.2-0.7V269.5z M665.7,296.6c0-4.4,3.6-7.9,8-7.9c2.3,0,4.6,1,6.1,2.8
		c1.4,1.7,3.9,1.9,5.6,0.5c4.7-3.8,8.3-8.7,10.6-14.3l11.9,4.8c1.9,0.8,3.8,1.3,5.8,1.6v20.4c0,8.8-7.2,16-16,16
		c-2.3,0-4.5-0.4-6.7-1.1c-2.1-0.7-4.4,0.4-5.1,2.4c-0.7,2.1,0.4,4.4,2.4,5.1l0,0c1.7,0.6,3.5,1,5.3,1.3v10.2l-8,5.3l-8-5.3v-29.9
		c0-2.2-1.8-4-4-4C669.2,304.5,665.6,301,665.7,296.6z M672.3,344.6l9.3,6.2l-4.1,4.1l-5.2-5.2c-1.6-1.6-4.1-1.6-5.7,0
		s-1.6,4.1,0,5.7l7.5,7.5l3.1,6.3l-3.2,20.5l-15.1-45.2H672.3z M626,628.8c-1.8,1.2-4.3,0.7-5.5-1.1l-27-40.1
		c-0.2-0.9-0.8-1.8-1.6-2.3l-0.1-0.1l46-30.8l8.7,12.4c0.7,1.1,2,1.7,3.3,1.7h17.9c1.1,2.2,0.3,4.9-1.8,6.1l-6.2,3.5
		c-1.9,1.1-2.6,3.5-1.5,5.4c0.1,0.1,0.1,0.2,0.2,0.3l8.9,12.8c1.3,1.8,0.8,4.3-1,5.6c0,0-0.1,0-0.1,0.1L626,628.8z M601.3,499.4
		c1.1-1.8,3-2.9,5.1-2.8h7.2c3.8,0,7.3,2.1,8.9,5.5l10,20c2.5,4.9,0.5,10.9-4.5,13.4c-1.4,0.7-2.9,1.1-4.5,1.1h-3.2
		c-2.3,0-4.4-1.3-5.4-3.3l-14-28C600,503.4,600.1,501.2,601.3,499.4z M689.5,600.6v-132c0-2.2-1.8-4-4-4s-4,1.8-4,4v132h-5.8
		c0.4-3-0.3-6-2-8.5l-6.4-9.2l2.3-1.3c6.1-3.4,8.2-11.1,4.8-17.2c-0.6-1-1.3-1.9-2.1-2.7c-0.7-0.8-1.8-1.2-2.8-1.2h-17.8l-15.1-21.7
		c0.8-0.9,1.5-1.8,2.2-2.8c3.3-5.3,3.6-11.9,0.8-17.5l-10-20c-3-6.1-9.3-10-16.1-10h-7.2c-1.4,0-2.9,0.2-4.3,0.7l-3.8-5.5l20.9-94.3
		c0.5-2.1-0.8-4.3-2.9-4.8s-4.3,0.8-4.8,2.9c0,0,0,0.1,0,0.1l-21.3,96c-0.2,1.1,0,2.2,0.6,3.2l4.8,6.9c-0.4,0.5-0.7,1-1,1.5
		c-2.6,4.1-2.8,9.3-0.6,13.6l14,28c2.4,4.8,7.2,7.8,12.5,7.7h3.2c2.2,0,4.4-0.4,6.5-1.2l3.1,4.5l-45.8,30.7l-39.6-58.9
		c-8.6-12.7-11.5-28.4-8.2-43.4l24.9-111.8c2.6-11.7,12.9-20,24.9-20h61.5l31.1,93.3c0.7,2.1,3,3.2,5.1,2.5c1.2-0.4,2.1-1.3,2.5-2.5
		l31.1-93.3h53.2c13.3,0,24,10.8,24.1,24l0.3,208h-20.3v-188c0-2.2-1.8-4-4-4s-4,1.8-4,4v212H689.5z M810.8,609.5
		c-1.7,1.1-3.9,1.2-5.7,0.2l-1.4-0.7c-2-1-4.4-0.2-5.4,1.7c-0.3,0.6-0.4,1.2-0.4,1.8l0,16c0,2.2-1.8,4-4,4h-16.4v-48h20.4l0,12
		c0,1.5,0.8,2.9,2.2,3.6l13,6.7C812.7,607.9,811.8,608.9,810.8,609.5z"/>
	<path d="M737.1,354.8c-1-2-3.4-2.8-5.4-1.8s-2.8,3.4-1.8,5.4l5.9,11.9l-19.6,6.5c-2.1,0.7-3.2,3-2.5,5.1c0.2,0.6,0.5,1.1,1,1.6
		l13.6,13.6l-38,53.2c-1.3,1.8-0.9,4.3,0.9,5.6c1.8,1.3,4.3,0.9,5.6-0.9l40-56c1.1-1.6,1-3.8-0.4-5.2L725,382.3l17.9-6
		c2.1-0.7,3.2-3,2.5-5.1c-0.1-0.2-0.1-0.4-0.2-0.5L737.1,354.8z"/>
	<path d="M642.8,397l13.6-13.6c1.6-1.6,1.6-4.1,0-5.7c-0.4-0.4-1-0.8-1.6-1l-19.6-6.5l5.9-11.9c1-2,0.2-4.4-1.8-5.4
		s-4.4-0.2-5.4,1.8l-8,16c-1,2-0.2,4.4,1.8,5.4c0.2,0.1,0.3,0.2,0.5,0.2l17.9,6l-11.4,11.4c-1.4,1.4-1.6,3.6-0.4,5.2l40,56
		c1.3,1.8,3.8,2.2,5.6,0.9s2.2-3.8,0.9-5.6L642.8,397z"/>
	<path d="M685.5,624.6c-2.2,0-4,1.8-4,4v64c0,2.2,1.8,4,4,4s4-1.8,4-4v-64C689.5,626.3,687.8,624.6,685.5,624.6z"/>
</g>
</svg>
